<svg aria-hidden="true" style="position: absolute; width: 0px; height: 0px; overflow-x: hidden; overflow-y: hidden;" version="1.1" xmlns="http://www.w3.org/2000/svg">
    <defs>
    <symbol id="icon-logo_plant" viewBox="0 0 32 32">
        <path fill="#f6cc90" style="" d="M3.19 31.41c0-.02 3.8-3.247 12.762-3.247 8.706 0 12.763 3.226 12.763 3.247H3.19z"/>
        <path fill="#f0c17f" style="" d="M15.95 28.163c-.555 0-1.09.012-1.608.036 7.627.35 11.197 3.19 11.197 3.21h3.174c0-.02-4.058-3.247-12.763-3.247z"/>
        <path fill="#c5e866" style="" d="M21.746 5.7c-1.038 3.01-3.837 3.53-3.837 3.53s-1.855-2.22-.844-5.154C18.13.986 20.93.466 20.93.466s1.868 2.182.816 5.233z"/>
        <path fill="#b2d94b" style="" d="M20.932.467s-.74.137-1.603.69a5.574 5.574 0 0 1 .363 4.542 5.364 5.364 0 0 1-2.227 2.843c.238.44.444.686.444.686s2.798-.52 3.837-3.532C22.8 2.648 20.93.466 20.93.466z"/>
        <path fill="#9cc042" style="" d="M18.958 19.86c-1.706.243-2.962-.105-2.962-.105s-1.086-4.358 2.308-7.764c3.575-3.586 7.83-2.405 7.83-2.405s.933 3.558-1.54 6.863z"/>
        <path fill="#85aa18" style="" d="M26.132 9.585s-1.14-.316-2.737-.124c.43.055.683.125.683.125s.933 3.557-1.54 6.863l-5.636 3.412c-.062.01-.124.017-.185.024.532.066 1.32.107 2.24-.024l5.636-3.412c2.473-3.306 1.54-6.863 1.54-6.863z"/>
        <path fill="#c5e866" style="" d="M11.927 17.575c3.028 2.386 2.51 5.807 2.51 5.807s-3.27 1.25-6.218-1.073c-3.108-2.45-2.59-5.87-2.59-5.87s3.23-1.282 6.297 1.135z"/>
        <path fill="#9cc042" style="" d="M8.454 12.653c3.05 3.884 7.412 3.217 7.412 3.217s1.592-4.2-1.378-7.983C11.36 3.902 6.998 4.57 6.998 4.57s-1.632 4.15 1.456 8.084z"/>
        <path fill="#c5e866" style="" d="M23.805 21.622c-2.616 1.81-5.176.562-5.176.562s-.183-2.89 2.365-4.652c2.684-1.856 5.244-.61 5.244-.61s.215 2.868-2.435 4.7z"/>
        <path fill="#b2d94b" style="" d="M26.24 16.922s-1.335-.65-3.088-.312c.64.12 1.032.312 1.032.312s.216 2.867-2.434 4.7a5.44 5.44 0 0 1-2.066.882 5.356 5.356 0 0 0 4.12-.883c2.65-1.83 2.434-4.698 2.434-4.698z"/>
        <path fill="#060606" style="" d="M28.792 30.883c-.924-.65-1.976-1.136-3.027-1.54-1.896-.73-5.05-1.595-9.42-1.644.07-.605.24-1.473.633-2.44a9.35 9.35 0 0 1 1.584-2.595 5.84 5.84 0 0 0 2.16.41c.97 0 2.152-.242 3.348-1.07 2.838-1.96 2.644-4.99 2.634-5.117a.467.467 0 0 0-.26-.385 4.823 4.823 0 0 0-1.086-.34 8.942 8.942 0 0 0 1.137-2.645c.146-.584-.76-.81-.906-.227a8.033 8.033 0 0 1-1.28 2.754c-1.01-.024-2.28.205-3.58 1.105a5.804 5.804 0 0 0-1.954 2.264 8.144 8.144 0 0 1-2 .007c.948-1.28 3.42-4.38 6.205-6 .522-.303.052-1.11-.47-.807-2.708 1.576-5.066 4.382-6.203 5.872-.066-1.454.186-4.017 2.326-6.164 1.395-1.398 3.055-2.21 4.933-2.408a7.848 7.848 0 0 1 2.17.066c.04.244.09.637.1 1.13.01.598.944.59.934-.015-.017-.97-.18-1.6-.186-1.626a.465.465 0 0 0-.327-.33c-.047-.014-1.166-.318-2.746-.158-1.453.147-3.594.732-5.538 2.682a9.446 9.446 0 0 0-.457.494c.262-.807.55-1.68.84-2.56a5.85 5.85 0 0 0 3.833-3.744c1.126-3.267-.82-5.59-.903-5.688a.464.464 0 0 0-.44-.155c-.125.022-3.08.605-4.22 3.915-.947 2.748.403 4.896.815 5.462-.272.818-.538 1.63-.784 2.384a8.804 8.804 0 0 0-1.802-4.17c-1.7-2.168-3.758-3.003-5.184-3.322-1.55-.346-2.697-.177-2.745-.17a.468.468 0 0 0-.364.29c-.012.034-.322.832-.427 2.056-.052.6.88.68.93.08a7.89 7.89 0 0 1 .28-1.527 7.833 7.833 0 0 1 2.16.192c1.843.42 3.396 1.422 4.616 2.976 1.155 1.473 1.728 3.182 1.702 5.08a8.717 8.717 0 0 1-.164 1.57c-1.847-3.44-4.463-6.083-4.577-6.198-.424-.427-1.085.233-.66.66.028.027 2.724 2.753 4.51 6.157a8.14 8.14 0 0 1-1.566-.19c-1.828-.405-3.357-1.377-4.544-2.89-.826-1.052-1.374-2.22-1.626-3.472-.12-.59-1.035-.406-.915.185.28 1.396.89 2.696 1.806 3.865 1.66 2.116 3.7 2.926 5.118 3.233a8.844 8.844 0 0 0 2.158.202v7.863c-.14-.303-.293-.59-.453-.863a7.003 7.003 0 0 0-2.695-6.167c-3.24-2.555-6.617-1.26-6.76-1.203a.465.465 0 0 0-.288.364c-.023.152-.52 3.72 2.763 6.307a6.94 6.94 0 0 0 4.365 1.515c.81 0 1.474-.132 1.88-.24a8.998 8.998 0 0 1 1.15 3.752c-2.417.04-4.67.318-6.71.828-.583.146-.357 1.052.227.906 1.975-.494 4.167-.762 6.52-.8v1.073c0 .603.934.603.934 0v-1.075c5.507.055 9.027 1.403 10.777 2.31H4.777a15.39 15.39 0 0 1 1.75-.787c.564-.214.232-1.087-.33-.873-1.164.442-1.992.89-2.482 1.19-.995.606-.995.752-.995.938 0 .258.21.467.467.467h25.526c.71 0 .43-.745.078-.994zM21.26 17.916c1.97-1.362 3.84-.913 4.514-.677a5.083 5.083 0 0 1-2.236 3.998 4.897 4.897 0 0 1-4.268.69c.92-.862 2.04-1.578 3.354-2.14.554-.238.186-1.097-.368-.86a12.68 12.68 0 0 0-2.97 1.762 4.935 4.935 0 0 1 1.974-2.774zm-3.522 2.497c.21 0 .432-.007.666-.025a6.3 6.3 0 0 0-.234 1.332 10.375 10.375 0 0 0-1.873 2.765v-4.19c.327.055.827.117 1.44.117zm-.23-16.185c.783-2.268 2.554-3.02 3.237-3.23a5.097 5.097 0 0 1 .56 4.55c-.578 1.678-1.74 2.507-2.562 2.9.606-1.793 1.205-3.49 1.64-4.557.228-.557-.637-.91-.865-.352-.453 1.112-1.07 2.864-1.69 4.698-.426-.813-.92-2.268-.32-4.008zm-9 17.714c-1.19-.938-1.96-2.133-2.285-3.55a6.102 6.102 0 0 1-.154-1.604 6.274 6.274 0 0 1 5.568 1.154c1.158.913 1.903 2.088 2.216 3.494.045.204.078.4.1.58-.31-.374-.626-.704-.93-.99-1.612-1.512-3.21-2.145-3.278-2.17-.56-.22-.9.65-.34.87.016.005 1.498.59 2.978 1.98.473.444.89.914 1.25 1.41-1.034.21-3.16.373-5.125-1.175z"/>
    </symbol>
    <symbol id="icon-arrow_back" viewBox="0 0 32 32">
        <path stroke-linejoin="miter" stroke-linecap="butt" stroke-miterlimit="4" stroke-width="1.3333" d="M16.01 6.25c.114 0 .212.034.322.144a.45.45 0 0 1 .145.332.425.425 0 0 1-.145.324L7.85 15.532h17.88a.45.45 0 0 1 .477.47.43.43 0 0 1-.13.336.457.457 0 0 1-.347.132H7.85l8.474 8.473c.11.11.147.212.148.335a.4.4 0 0 1-.074.247l-.07.082a.415.415 0 0 1-.322.142.457.457 0 0 1-.34-.152L6.4 16.334a.542.542 0 0 1-.12-.167c-.02-.05-.03-.103-.03-.166s.01-.115.03-.162a.554.554 0 0 1 .12-.168l9.268-9.267a.466.466 0 0 1 .342-.152z"/>
    </symbol>
    <symbol id="icon-arrow_forward" viewBox="0 0 32 32">
        <path stroke-linejoin="miter" stroke-linecap="butt" stroke-miterlimit="4" stroke-width="1.3333" d="M15.993 6.253c.095 0 .177.023.26.08l.08.07L25.6 15.67c.07.072.105.128.12.167.02.05.032.103.032.166s-.012.117-.03.164a.567.567 0 0 1-.122.168l-9.272 9.264c-.122.12-.227.155-.337.155-.11 0-.205-.032-.316-.146l-.007-.007-.07-.08c-.055-.08-.074-.158-.074-.244s.02-.163.075-.242l.07-.08 8.48-8.482H6.27a.44.44 0 0 1-.47-.47c.002-.16.048-.26.13-.34.082-.08.178-.127.34-.128h17.88l-8.473-8.474a.467.467 0 0 1-.14-.246l-.01-.09c0-.12.035-.218.142-.326a.42.42 0 0 1 .325-.143z"/>
    </symbol>
    <symbol id="icon-arrow_down" viewBox="0 0 32 32">
        <path stroke-linejoin="miter" stroke-linecap="butt" stroke-miterlimit="4" stroke-width="1.3333" d="M9.45 12.03c.133 0 .236.042.34.146l6.208 6.244 6.243-6.244c.105-.103.193-.133.3-.13a.49.49 0 0 1 .35.164c.103.104.144.207.144.34s-.04.237-.145.34l-6.56 6.56a.527.527 0 0 1-.167.122c-.047.02-.1.03-.165.03a.5.5 0 0 1-.09-.008l-.077-.022-.07-.04a.68.68 0 0 1-.094-.082l-6.592-6.59a.392.392 0 0 1-.13-.32.507.507 0 0 1 .164-.364.447.447 0 0 1 .34-.145z"/>
    </symbol>
    <symbol id="icon-arrow_left" viewBox="0 0 32 32">
        <path stroke-linejoin="miter" stroke-linecap="butt" stroke-miterlimit="4" stroke-width="1.3333" d="M18.716 8.865c.134 0 .237.04.34.145s.146.207.146.34-.04.238-.145.342l-6.276 6.276 6.277 6.275c.104.104.133.193.13.3a.492.492 0 0 1-.162.35c-.104.103-.207.145-.34.145s-.238-.042-.342-.146l-6.592-6.59a.743.743 0 0 1-.08-.097l-.04-.07a.415.415 0 0 1-.03-.165c0-.032 0-.063.007-.09l.023-.077a.548.548 0 0 1 .12-.167l6.627-6.625a.447.447 0 0 1 .34-.144z"/>
    </symbol>
    <symbol id="icon-arrow_right" viewBox="0 0 32 32">
        <path stroke-linejoin="miter" stroke-linecap="butt" stroke-miterlimit="4" stroke-width="1.3333" d="M12.516 8.897c.134 0 .237.04.34.145l6.593 6.592a.547.547 0 0 1 .12.165c.02.047.03.1.03.165s-.01.118-.03.165a.547.547 0 0 1-.12.166l-6.626 6.625c-.104.105-.193.134-.3.13a.492.492 0 0 1-.35-.16c-.103-.105-.145-.208-.145-.342s.04-.237.145-.34l6.242-6.243L12.14 9.69c-.103-.105-.132-.193-.128-.3a.49.49 0 0 1 .163-.35.447.447 0 0 1 .34-.144z"/>
    </symbol>
    <symbol id="icon-arrow_up" viewBox="0 0 32 32">
        <path stroke-linejoin="miter" stroke-linecap="butt" stroke-miterlimit="4" stroke-width="1.3333" d="M16 11.605c.125 0 .227.038.333.145l6.59 6.592c.11.11.146.208.146.324s-.036.215-.146.324c-.104.104-.207.145-.34.145s-.237-.04-.34-.145h-.002L16 12.78l-6.242 6.24c-.104.105-.192.134-.3.13a.493.493 0 0 1-.348-.16c-.104-.105-.145-.208-.145-.342s.04-.237.145-.34l6.56-6.56a.438.438 0 0 1 .33-.145z"/>
    </symbol>
    <symbol id="icon-bookmark" viewBox="0 0 32 32">
        <path d="m16 24.223-6.358 2.72c-.757.326-1.475.265-2.155-.184s-1.02-1.084-1.02-1.906V5.904c0-.616.225-1.15.676-1.6s.982-.68 1.595-.68H23.26c.617 0 1.15.227 1.602.68s.678.984.678 1.6v18.95c0 .82-.34 1.456-1.024 1.905s-1.402.51-2.16.183L16 24.223zm0-2.43 7.262 3.062V5.905H8.74v18.95l7.26-3.06zm0-15.888z"/>
    </symbol>
    <symbol id="icon-bookmark-filled" viewBox="0 0 32 32">
        <path fill="currentColor" d="M8 4C7.44772 4 7 4.44772 7 5V28C7 28.383 7.21818 28.7312 7.56247 28.8901C7.90676 29.049 8.31007 28.9896 8.6 28.74L16 22.9484L23.4 28.74C23.6899 28.9896 24.0932 29.049 24.4375 28.8901C24.7818 28.7312 25 28.383 25 28V5C25 4.44772 24.5523 4 24 4H8Z"/>
    </symbol>
    <symbol id="icon-close" viewBox="0 0 32 32">
        <path stroke-linejoin="miter" stroke-linecap="butt" stroke-miterlimit="4" stroke-width="1.3333" d="M23.466 7.9c.22 0 .355.065.462.172s.172.242.172.46c0 .22-.065.356-.172.463L16.923 16l7.005 7.004c.107.107.172.243.172.462s-.065.355-.172.462-.243.172-.462.172c-.22 0-.355-.065-.462-.172L16 16.923l-7.005 7.005c-.107.107-.243.172-.462.172s-.354-.065-.46-.172c-.108-.107-.173-.243-.173-.462s.065-.355.172-.462L15.076 16 8.072 8.995c-.107-.107-.172-.243-.172-.462s.065-.354.172-.46.242-.173.46-.173c.22 0 .356.065.463.172L16 15.076l7.004-7.004c.107-.107.243-.172.462-.172z"/>
    </symbol>
    <symbol id="icon-communication" viewBox="0 0 32 32">
        <path d="M1.15 21.27v-.568c0-1.243.618-2.06 1.853-2.45s2.33-.586 3.283-.586c.954 0 2.048.195 3.283.584s1.852 1.207 1.852 2.45v.57H1.152zm5.134-5.39c-.725 0-1.345-.258-1.86-.775s-.774-1.14-.774-1.866.258-1.35.775-1.864c.516-.515 1.137-.773 1.862-.773s1.345.26 1.86.776c.517.516.774 1.138.774 1.863s-.257 1.346-.774 1.864a2.537 2.537 0 0 1-1.862.776zm6.96 2c-.255 0-.466-.08-.632-.24s-.25-.365-.25-.616c0-.125.084-.342.25-.65.172-.244.31-.5.41-.767s.15-.545.15-.834c0-.29-.05-.575-.15-.858s-.238-.532-.412-.75c-.072-.096-.13-.197-.177-.302s-.07-.216-.07-.333c0-.254.084-.464.25-.63s.378-.247.632-.247c.112 0 .228.018.346.054s.212.098.28.187c.387.405.672.856.852 1.353s.27 1.006.27 1.526c0 .516-.096 1.035-.29 1.556s-.48.967-.856 1.34c-.09.088-.182.145-.278.17s-.204.038-.322.038zm2.54 2.535c-.26 0-.472-.084-.634-.25s-.243-.38-.243-.636c0-.12.022-.23.065-.33s.1-.202.173-.297c.546-.64.95-1.307 1.215-2.005s.395-1.405.395-2.125-.132-1.434-.395-2.144a6.393 6.393 0 0 0-1.216-2c-.07-.094-.13-.19-.172-.29s-.065-.21-.065-.335c0-.258.083-.47.25-.633s.377-.246.632-.246c.13 0 .25.03.362.09s.214.142.308.243c.695.8 1.215 1.648 1.558 2.546s.516 1.82.516 2.764c0 .945-.172 1.866-.516 2.764s-.863 1.747-1.558 2.547c-.087.112-.187.195-.3.25s-.237.084-.377.084zm4.795.856v-.568c0-1.244.616-2.06 1.852-2.45s2.33-.585 3.283-.585c.954 0 2.048.195 3.283.586s1.853 1.207 1.853 2.45v.57H20.58zm5.133-5.39c-.725 0-1.345-.258-1.86-.775s-.774-1.14-.774-1.866.257-1.35.774-1.864c.516-.515 1.137-.773 1.862-.773s1.345.26 1.86.776c.517.516.774 1.138.774 1.863s-.258 1.346-.775 1.864a2.537 2.537 0 0 1-1.862.776z"/>
    </symbol>
    <symbol id="icon-edit" viewBox="0 0 32 32">
        <path d="M6.064 25.928H7.54l15.326-15.294-1.46-1.467L6.065 24.47v1.458zm-1.128 2.27A1.102 1.102 0 0 1 3.8 27.065v-2.56c0-.305.063-.602.188-.892s.29-.537.493-.742L22.953 4.424c.183-.188.404-.335.66-.44s.526-.16.804-.16c.255 0 .51.054.765.16s.492.25.708.432l1.73 1.706c.205.216.355.453.45.71s.14.518.14.778-.053.524-.158.79-.25.494-.433.682L9.147 27.52c-.21.204-.46.37-.747.493s-.583.187-.887.187H4.936zM22.14 9.894l-.733-.725 1.46 1.467-.726-.74z"/>
    </symbol>
    <symbol id="icon-facebook" viewBox="0 0 32 32">
        <path d="M29.333 16.405c0-7.41-5.97-13.415-13.333-13.415S2.667 8.996 2.667 16.405c0 6.696 4.876 12.245 11.25 13.252v-9.374h-3.385v-3.878h3.385V13.45c0-3.362 1.99-5.22 5.036-5.22 1.46 0 2.985.263 2.985.263v3.3h-1.68c-1.657 0-2.174 1.035-2.174 2.096v2.515h3.698l-.59 3.878h-3.108v9.374c6.374-1.006 11.25-6.556 11.25-13.252z"/>
    </symbol>
    <symbol id="icon-logout" viewBox="0 0 32 32">
        <path d="M6.072 28.2c-.613 0-1.145-.226-1.595-.677S3.8 26.54 3.8 25.928V6.07c0-.615.226-1.148.677-1.6s.982-.678 1.595-.678h8.807c.32 0 .59.11.807.334s.327.495.327.816c0 .322-.11.59-.327.806s-.487.323-.808.323H6.07V25.93h8.807c.32 0 .59.11.807.33s.327.49.327.81c0 .323-.11.592-.327.807s-.487.323-.808.323H6.07zm17.784-11.064H13.088c-.32 0-.59-.11-.808-.33s-.327-.49-.327-.81c0-.323.11-.592.327-.807s.488-.324.808-.324h10.7l-2.563-2.564c-.227-.228-.334-.495-.323-.8s.13-.57.357-.795c.225-.23.495-.342.81-.34s.584.117.814.344l4.53 4.53c.22.23.33.494.33.797s-.11.568-.33.794l-4.497 4.497c-.222.226-.486.335-.792.327s-.577-.126-.812-.352c-.218-.227-.328-.497-.33-.81s.11-.587.343-.814l2.53-2.54z"/>
    </symbol>
        <symbol id="icon-menu" viewBox="0 0 32 32">
        <path d="M4.936 24.295c-.32 0-.59-.11-.808-.33s-.327-.492-.327-.82c0-.32.11-.59.328-.806s.488-.324.808-.324h22.127c.32 0 .59.11.812.33s.33.49.33.81a1.12 1.12 0 0 1-1.143 1.137H4.937zm0-7.16c-.32 0-.59-.11-.808-.328s-.327-.49-.327-.812c0-.322.11-.59.328-.806s.488-.324.808-.324h22.127c.32 0 .59.11.812.33s.33.49.33.81c0 .323-.11.592-.33.807s-.492.323-.812.323H4.936zm0-7.15c-.32 0-.59-.11-.808-.33s-.327-.493-.327-.82c0-.322.11-.59.328-.806s.488-.324.808-.324h22.127c.32 0 .59.11.812.33s.33.49.33.81a1.116 1.116 0 0 1-1.143 1.138H4.937z"/>
    </symbol>
    <symbol id="icon-travel_bag" viewBox="0 0 32 32">
        <path d="M6.467 25.762v-15.69c0-.632.22-1.17.663-1.614s.978-.665 1.608-.665h3.34V3.587c0-.325.12-.608.36-.85s.52-.365.845-.365h5.435c.325 0 .607.12.846.364s.358.526.358.85v4.207h3.34c.633 0 1.17.222 1.615.665s.665.98.665 1.614v15.69c0 .63-.222 1.166-.665 1.608s-.98.663-1.614.663v.548c0 .298-.1.547-.298.748s-.448.3-.75.3c-.305 0-.566-.092-.784-.278s-.305-.442-.262-.77v-.547H10.836v.548c0 .298-.1.547-.298.748s-.45.3-.75.3c-.305 0-.566-.092-.785-.278s-.306-.442-.263-.77v-.547c-.63 0-1.166-.22-1.608-.663s-.663-.978-.663-1.608zm7.7-17.97h3.667V4.46h-3.667v3.333zM16 15.78c1.276 0 2.536-.142 3.78-.425s2.403-.763 3.48-1.436v-3.844H8.74v3.846c1.078.672 2.24 1.15 3.483 1.434s2.504.425 3.78.425zm-1.048 2.65V18c-1.112-.066-2.19-.245-3.236-.537s-2.038-.72-2.978-1.288v9.59H23.26v-9.598c-.938.567-1.93.997-2.977 1.29s-2.124.473-3.236.545v.43c0 .296-.1.545-.3.746s-.45.3-.753.3c-.303 0-.552-.098-.748-.297s-.294-.45-.294-.75z"/>
    </symbol>
    <symbol id="icon-wand_stars" viewBox="0 0 32 32">
        <path d="m21.848 16.962-3.113 5.02c-.178.294-.43.408-.754.34s-.53-.257-.62-.574l-1.092-4.41-10.08 10.03a1.08 1.08 0 0 1-1.592 0c-.226-.226-.34-.49-.34-.795s.113-.57.34-.796l10.047-10.04-4.425-1.09c-.316-.09-.507-.297-.57-.62s.047-.58.336-.763l5.02-3.146-.408-5.87c-.022-.338.118-.585.42-.74s.58-.122.83.1l4.504 3.788 5.46-2.19c.312-.11.58-.052.81.176s.285.497.174.808l-2.222 5.46 3.788 4.513c.222.25.26.526.117.83s-.386.442-.725.42l-5.902-.45zM4.215 8a.55.55 0 0 1-.183-.412c0-.158.06-.297.183-.418l1.63-1.63c.115-.115.252-.174.41-.174s.296.058.418.175L8.26 7.138c.123.122.183.26.183.414s-.06.294-.182.416l-1.628 1.63c-.122.12-.26.18-.415.18s-.293-.06-.414-.18L4.215 7.998zM18.65 18.05l2.05-3.305 3.897.292-2.536-2.987 1.47-3.604-3.605 1.46L16.93 7.37l.3 3.896-3.312 2.077 3.796.943.935 3.763zm5.385 9.735-1.63-1.62c-.12-.123-.176-.26-.165-.415s.077-.293.2-.415l1.595-1.588c.116-.122.253-.183.41-.183s.298.06.42.183l1.628 1.62c.116.123.17.26.158.416s-.074.293-.19.414l-1.596 1.588c-.122.122-.26.183-.414.183s-.293-.06-.415-.183z"/>
    </symbol>
    <symbol id="icon-facebook" viewBox="0 0 32 32">
        <path d="M29.333 16.405c0-7.41-5.97-13.415-13.333-13.415S2.667 8.996 2.667 16.405c0 6.696 4.876 12.245 11.25 13.252v-9.374h-3.385v-3.878h3.385V13.45c0-3.362 1.99-5.22 5.036-5.22 1.46 0 2.985.263 2.985.263v3.3h-1.68c-1.657 0-2.174 1.035-2.174 2.096v2.515h3.698l-.59 3.878h-3.108v9.374c6.374-1.006 11.25-6.556 11.25-13.252z"/>
    </symbol>
    <symbol id="icon-instagram" viewBox="0 0 32 32">
        <path d="M16.006 6.488c3.206 0 3.585.014 4.846.07 1.172.053 1.804.25 2.227.413.557.217.96.48 1.377.896.422.422.68.82.9 1.378.164.422.36 1.06.412 2.226.055 1.266.07 1.645.07 4.847s-.014 3.585-.07 4.847c-.053 1.172-.25 1.804-.413 2.227-.216.56-.478.962-.895 1.378a3.77 3.77 0 0 1-1.377.9c-.422.164-1.06.36-2.227.413-1.266.057-1.645.07-4.847.07s-3.584-.013-4.846-.07c-1.172-.05-1.804-.247-2.226-.412a3.714 3.714 0 0 1-1.378-.895 3.767 3.767 0 0 1-.9-1.378c-.164-.422-.36-1.06-.412-2.226-.056-1.267-.07-1.646-.07-4.848s.013-3.585.07-4.847c.052-1.172.248-1.804.412-2.226.216-.56.478-.962.895-1.38.422-.42.82-.678 1.378-.9.422-.163 1.06-.36 2.226-.41 1.26-.057 1.64-.072 4.846-.072zm0-2.16c-3.258 0-3.665.014-4.945.07-1.274.057-2.15.263-2.91.56a5.847 5.847 0 0 0-2.126 1.386 5.883 5.883 0 0 0-1.387 2.123c-.295.764-.502 1.636-.558 2.91-.057 1.285-.072 1.692-.072 4.95s.014 3.664.07 4.944c.057 1.276.263 2.152.56 2.91a5.86 5.86 0 0 0 1.386 2.128 5.876 5.876 0 0 0 2.123 1.383c.764.296 1.636.503 2.91.56 1.28.055 1.687.07 4.945.07s3.665-.014 4.945-.07c1.275-.057 2.15-.263 2.91-.56.787-.304 1.458-.716 2.123-1.382s1.078-1.335 1.383-2.123c.295-.764.502-1.635.558-2.91.057-1.28.07-1.687.07-4.945s-.013-3.665-.07-4.945c-.055-1.275-.262-2.15-.557-2.91a5.622 5.622 0 0 0-1.373-2.133 5.876 5.876 0 0 0-2.123-1.383c-.764-.296-1.636-.503-2.91-.56-1.284-.06-1.692-.074-4.95-.074z"/>
        <path d="M16.006 10.163a6.164 6.164 0 1 0 6.163 6.163 6.165 6.165 0 0 0-6.163-6.163zm0 10.16a3.998 3.998 0 1 1 0-7.995 3.998 3.998 0 0 1 0 7.996z"/>
        <path d="M23.85 9.92a1.44 1.44 0 1 1-2.876 0 1.44 1.44 0 0 1 2.877 0z"/>
    </symbol>
    <symbol id="icon-x" viewBox="0 0 32 32">
        <path d="M22.9 5.657h3.68l-8.04 9.037L28 26.99h-7.406l-5.8-7.457-6.638 7.458H4.474l8.6-9.665L4 5.657h7.594l5.243 6.817L22.9 5.657zm-1.29 19.167h2.04L10.485 7.71H8.298L21.61 24.823z"/>
    </symbol>
    <symbol id="icon-youtube" viewBox="0 0 32 32">
        <path d="M28.79 9.604a3.345 3.345 0 0 0-2.35-2.354C24.354 6.677 16 6.667 16 6.667s-8.352-.01-10.44.54c-.564.16-1.076.46-1.488.877s-.71.93-.867 1.493c-.55 2.088-.556 6.42-.556 6.42s-.006 4.35.54 6.418a3.34 3.34 0 0 0 2.35 2.353c2.11.573 10.44.583 10.44.583s8.354.01 10.442-.536a3.356 3.356 0 0 0 2.356-2.35c.552-2.087.556-6.416.556-6.416s.027-4.353-.543-6.44zM13.33 20.007l.007-8 6.943 4.007-6.95 3.993z"/>
    </symbol>
    </defs>
</svg>